<svg xmlns="http://www.w3.org/2000/svg" width="25.179" height="28.406" viewBox="0 0 25.179 28.406">
  <g id="Group_6837" data-name="Group 6837" transform="translate(-1754.27 -53.668)">
    <g id="noun-basket-3612900" transform="translate(1754.74 54.219)">
      <path id="Path_4200" data-name="Path 4200" d="M14.033,29.882A1.287,1.287,0,0,1,12.8,29.09a2,2,0,0,1,0-1.72,1.287,1.287,0,0,1,1.234-.791h9.36a.4.4,0,0,1,0,.777h-9.36a.894.894,0,0,0,0,1.748h9.36a.4.4,0,0,1,0,.777Z" transform="translate(-12.605 -17.757)" stroke="#404644" stroke-width="0.9"/>
      <path id="Path_4201" data-name="Path 4201" d="M43.109,29.884H34.9a.4.4,0,0,1,0-.777h8.206a.916.916,0,0,0,0-1.749H34.9a.4.4,0,0,1,0-.777h8.206a1.519,1.519,0,0,1,1.334,1.652A1.519,1.519,0,0,1,43.109,29.884Z" transform="translate(-20.184 -17.758)" stroke="#404644" stroke-width="0.9"/>
      <path id="Path_4202" data-name="Path 4202" d="M25.329,41.221H18.913A2.693,2.693,0,0,1,16.791,40.2l-1.18-1.488a4.639,4.639,0,0,1-.992-2.511l-.54-6.07a.314.314,0,0,1,.314-.339H23.74a.314.314,0,0,1,0,.628h-9l.508,5.782A4.011,4.011,0,0,0,16.1,38.34l1.18,1.488a2.072,2.072,0,0,0,1.632.766h6.416a.314.314,0,0,1,0,.628Z" transform="translate(-13.154 -18.317)" stroke="#404644" stroke-width="0.9"/>
      <path id="Path_4203" data-name="Path 4203" d="M38.229,41.255H31.814a.314.314,0,0,1,0-.628h6.416a2.072,2.072,0,0,0,1.632-.785l1.18-1.488a4.011,4.011,0,0,0,.854-2.122l.508-5.725H33.783a.314.314,0,0,1,0-.628h8.96a.314.314,0,0,1,.314.339l-.534,6.014a4.633,4.633,0,0,1-.992,2.511l-1.18,1.488a2.693,2.693,0,0,1-2.122,1.023Z" transform="translate(-19.639 -18.35)" stroke="#404644" stroke-width="0.9"/>
      <path id="Path_4204" data-name="Path 4204" d="M22.662,52.129H20.029a.381.381,0,0,1-.278-.115.285.285,0,0,1-.074-.261l1.012-4.5A.35.35,0,0,1,21.04,47h2.64a.381.381,0,0,1,.278.115.285.285,0,0,1,.074.261l-1.019,4.5A.35.35,0,0,1,22.662,52.129Zm-2.2-.628h1.908l.875-3.873h-1.9Z" transform="translate(-15.235 -24.723)" stroke="#404644" stroke-width="0.9"/>
      <path id="Path_4205" data-name="Path 4205" d="M42.518,52.129H39.83a.358.358,0,0,1-.36-.251l-1.043-4.5a.281.281,0,0,1,.075-.261A.394.394,0,0,1,38.787,47h2.7a.358.358,0,0,1,.36.251l1.035,4.5a.281.281,0,0,1-.075.261.394.394,0,0,1-.284.115ZM40.124,51.5h1.953l-.889-3.873H39.235Z" transform="translate(-22.864 -24.723)" stroke="#404644" stroke-width="0.9"/>
      <path id="Path_4207" data-name="Path 4207" d="M3.182,14.991a.314.314,0,0,1-.314-.314l.086-2.994L2.868,1.695a1.067,1.067,0,1,0-2.134,0L.628,15.047c0,.173-.314.314-.314.314A.314.314,0,0,1,0,15.047L.106,1.695a1.695,1.695,0,1,1,3.39,0V14.677A.314.314,0,0,1,3.182,14.991Z" transform="matrix(0.966, 0.259, -0.259, 0.966, 13.634, 0.001)" stroke="#404644" stroke-width="0.9"/>
      <circle id="Ellipse_555" data-name="Ellipse 555" cx="2.83" cy="2.83" r="2.83" transform="translate(8.746 11.721)" fill="#404644"/>
      <path id="Path_4444" data-name="Path 4444" d="M1.456,0A1.456,1.456,0,1,1,0,1.456,1.456,1.456,0,0,1,1.456,0Z" transform="translate(10.12 13.094)" fill="#fff"/>
    </g>
  </g>
</svg>
