<svg xmlns="http://www.w3.org/2000/svg" width="22.535" height="22.536" viewBox="0 0 22.535 22.536">
  <g id="Group_6649" data-name="Group 6649" transform="translate(-1565.465 -7684.286)">
    <path id="XMLID_17_" d="M15.822,0H6.713A6.721,6.721,0,0,0,0,6.713v9.109a6.721,6.721,0,0,0,6.713,6.713h9.109a6.721,6.721,0,0,0,6.713-6.713V6.713A6.721,6.721,0,0,0,15.822,0Zm4.446,15.822a4.446,4.446,0,0,1-4.446,4.446H6.713a4.446,4.446,0,0,1-4.446-4.446V6.713A4.446,4.446,0,0,1,6.713,2.267h9.109a4.446,4.446,0,0,1,4.446,4.446v9.109Z" transform="translate(1565.465 7684.286)" fill="#fff"/>
    <path id="XMLID_81_" d="M138.828,133a5.828,5.828,0,1,0,5.828,5.828A5.835,5.835,0,0,0,138.828,133Zm0,9.39a3.561,3.561,0,1,1,3.561-3.561A3.561,3.561,0,0,1,138.828,142.39Z" transform="translate(1437.904 7556.725)" fill="#fff"/>
    <circle id="XMLID_83_" cx="1.397" cy="1.397" r="1.397" transform="translate(1581.176 7688.373)" fill="#fff"/>
  </g>
</svg>
