<svg xmlns="http://www.w3.org/2000/svg" width="21.508" height="21.508" viewBox="0 0 21.508 21.508">
  <g id="noun-pencil-7182466" transform="translate(-6.1 -6.102)">
    <g id="Group_7187" data-name="Group 7187" transform="translate(6.1 6.102)">
      <path id="Path_4596" data-name="Path 4596" d="M6.443,27.61a.343.343,0,0,1-.326-.449l2.528-7.723.125-.385a.351.351,0,0,1,.083-.136l12.3-12.3a1.779,1.779,0,0,1,2.513,0l3.427,3.427a1.779,1.779,0,0,1,0,2.513l-12.3,12.295a.34.34,0,0,1-.136.083l-.384.126L6.549,27.593a.362.362,0,0,1-.106.016ZM9.4,19.345l-.1.306L6.98,26.73l7.079-2.318.306-.1L26.6,12.076a1.092,1.092,0,0,0,0-1.544L23.177,7.106a1.091,1.091,0,0,0-1.543,0ZM14.552,24.613Z" transform="translate(-6.1 -6.102)" fill="#404644"/>
      <path id="Path_4597" data-name="Path 4597" d="M23.621,63.253a.345.345,0,0,1-.243-.1c-.124-.124-.224-.131-.437-.136A1.159,1.159,0,0,1,21.7,61.772c0-.213-.011-.313-.136-.437s-.224-.131-.437-.136a1.159,1.159,0,0,1-1.245-1.245c0-.213-.011-.313-.136-.437s-.224-.131-.437-.136a1.159,1.159,0,0,1-1.245-1.245c0-.213-.011-.313-.136-.437h0a.343.343,0,1,1,.485-.485,1.175,1.175,0,0,1,.337.909c0,.213.011.313.136.437s.224.131.437.136a1.159,1.159,0,0,1,1.245,1.245c0,.213.011.313.136.437s.224.131.437.136a1.159,1.159,0,0,1,1.245,1.245c0,.213.011.313.136.437s.224.131.437.136a1.178,1.178,0,0,1,.909.336h0a.343.343,0,0,1-.242.586Z" transform="translate(-14.952 -44.617)" fill="#404644"/>
      <path id="Path_4598" data-name="Path 4598" d="M66.067,20.807a.345.345,0,0,1-.243-.1c-.124-.124-.224-.131-.437-.136a1.159,1.159,0,0,1-1.245-1.245c0-.213-.011-.313-.136-.437s-.224-.131-.437-.136a1.159,1.159,0,0,1-1.245-1.245c0-.213-.011-.313-.136-.437s-.224-.131-.437-.136a1.159,1.159,0,0,1-1.245-1.245c0-.213-.011-.313-.136-.437h0a.343.343,0,0,1,.485-.485,1.175,1.175,0,0,1,.337.909c0,.213.011.313.136.437s.224.131.437.136A1.159,1.159,0,0,1,63.011,17.5c0,.213.011.313.136.437s.224.131.437.136a1.159,1.159,0,0,1,1.245,1.245c0,.213.011.313.136.437s.224.131.437.136a1.178,1.178,0,0,1,.909.336h0a.343.343,0,0,1-.242.586Z" transform="translate(-47 -12.569)" fill="#404644"/>
      <path id="Path_4599" data-name="Path 4599" d="M33.152,40.736a.342.342,0,0,1-.243-.585l10.4-10.4a.343.343,0,0,1,.485.485l-10.4,10.4A.343.343,0,0,1,33.152,40.736Z" transform="translate(-26.266 -23.883)" fill="#404644"/>
      <path id="Path_4600" data-name="Path 4600" d="M25.442,33.029a.343.343,0,0,1-.242-.586l10.4-10.4a.343.343,0,0,1,.485.485l-10.4,10.4a.345.345,0,0,1-.243.1Z" transform="translate(-20.445 -18.064)" fill="#404644"/>
      <path id="Path_4601" data-name="Path 4601" d="M13.158,80.388a.345.345,0,0,1-.243-.1l-2.249-2.249a.343.343,0,1,1,.485-.485L13.4,79.8a.343.343,0,0,1-.242.586Z" transform="translate(-9.472 -59.974)" fill="#404644"/>
    </g>
  </g>
</svg>
