<svg xmlns="http://www.w3.org/2000/svg" width="21.28" height="20" viewBox="0 0 21.28 20">
  <path id="Path_1485" data-name="Path 1485" d="M.061-19.988c-.009.013.7.978,1.567,2.139s2.715,3.632,4.1,5.487L8.254-8.988,8.093-8.8C8-8.7,6.146-6.7,3.972-4.352S.013-.061.009-.039A4.734,4.734,0,0,0,.925,0l.93,0,.306-.336c.17-.183,1.75-1.89,3.514-3.8S8.931-7.665,8.992-7.735L9.1-7.862l.873,1.17c.48.642,1.8,2.414,2.938,3.933L14.981,0h3.165a20.686,20.686,0,0,0,3.143-.057c-.013-.035-.816-1.117-1.785-2.414s-2.078-2.776-2.462-3.291-1.528-2.047-2.54-3.4-1.842-2.479-1.842-2.5,5.352-5.84,7.172-7.783l.519-.554h-.956l-.952,0-1.113,1.2c-.611.663-2.108,2.287-3.331,3.6L11.786-12.79,9.1-16.378,6.412-19.97l-3.165-.022C1.506-20.005.07-20,.061-19.988Zm7.5,3.867c1.035,1.388,2.632,3.523,3.549,4.749s2.951,3.946,4.522,6.046S18.5-1.48,18.525-1.449a5.124,5.124,0,0,1-1.414.052H15.666L12.8-5.229Q2.89-18.475,2.82-18.587c-.026-.039.271-.052,1.41-.052H5.675Z" transform="translate(-0.009 20)" fill="#fff"/>
</svg>
