<svg xmlns="http://www.w3.org/2000/svg" width="30.677" height="30.677" viewBox="0 0 30.677 30.677">
  <g id="noun-united-kingdom-6207042" transform="translate(-3.046 -20.405)">
    <path id="Path_4208" data-name="Path 4208" d="M37.667,38.6a.977.977,0,0,1,.977-.977H50.967a15.619,15.619,0,0,0,0-3.763H38.643a.977.977,0,0,1-.977-.977V20.524a15.587,15.587,0,0,0-3.763-.01V32.885a.977.977,0,0,1-.977.977H20.518a15.619,15.619,0,0,0,0,3.763h12.41a.977.977,0,0,1,.977.977V50.973a15.587,15.587,0,0,0,3.763-.01Z" transform="translate(-17.358 0)" fill="#c40000"/>
    <g id="Group_7186" data-name="Group 7186" transform="translate(-0.47 -0.47)">
      <path id="Path_4445" data-name="Path 4445" d="M32.245,30.848l-6.652-6.5a15.985,15.985,0,0,1,6.652-3.475Zm8.024-9.95v9.936l6.575-6.474A15.985,15.985,0,0,0,40.269,20.9ZM32.245,51.551V41.6L25.64,48.117A15.983,15.983,0,0,0,32.245,51.551Zm8.024-.023A15.984,15.984,0,0,0,46.8,48.106l-6.528-6.5Z" transform="translate(-17.364 0)" fill="#1b0f7b"/>
      <path id="Path_4446" data-name="Path 4446" d="M6.651,9.973,0,3.475A15.985,15.985,0,0,1,6.651,0ZM14.675.023V9.96L21.25,3.486A15.984,15.984,0,0,0,14.675.023ZM6.651,30.677V20.721L.046,27.242A15.982,15.982,0,0,0,6.651,30.677Zm8.024-.023A15.983,15.983,0,0,0,21.2,27.231l-6.528-6.5Z" transform="translate(34.193 25.588) rotate(90)" fill="#1b0f7b"/>
    </g>
  </g>
</svg>
