<svg id="noun-people-6573620" xmlns="http://www.w3.org/2000/svg" width="16.586" height="27.406" viewBox="0 0 16.586 27.406">
  <g id="Group_5907" data-name="Group 5907" transform="translate(0 0)">
    <path id="Path_4192" data-name="Path 4192" d="M102.852,333.213A8.294,8.294,0,0,0,98,340.758v6.35a.841.841,0,0,0,.841.841h14.9a.841.841,0,0,0,.841-.841v-6.35a8.291,8.291,0,0,0-4.853-7.545,6.8,6.8,0,1,0-6.881,0Zm10.053,7.545v5.509H99.681v-5.509a6.611,6.611,0,0,1,6.435-6.609c.057,0,.252,0,.289,0a6.611,6.611,0,0,1,6.5,6.61Zm-6.612-18.535a5.121,5.121,0,0,1,.113,10.242c-.037,0-.262,0-.338,0a5.122,5.122,0,0,1,.225-10.238Z" transform="translate(-98 -320.542)" fill="#404644" fill-rule="evenodd"/>
  </g>
</svg>
