<svg xmlns="http://www.w3.org/2000/svg" xmlns:xlink="http://www.w3.org/1999/xlink" width="36.883" height="35.887" viewBox="0 0 36.883 35.887">
  <defs>
    <clipPath id="clip-path">
      <rect id="Rectangle_2822" data-name="Rectangle 2822" width="36.883" height="35.887" transform="translate(0)" fill="#404644" stroke="#404644" stroke-width="0.6"/>
    </clipPath>
  </defs>
  <g id="Group_5924" data-name="Group 5924" clip-path="url(#clip-path)">
    <path id="Path_4253" data-name="Path 4253" d="M18.439,0a2.476,2.476,0,0,0-1.223.393c-.4.213-.815.486-1.221.758s-.8.54-1.142.753a4.035,4.035,0,0,1-.723.379,4.185,4.185,0,0,1-.82.023c-.4-.019-.889-.058-1.382-.1s-.985-.068-1.44-.061A2.528,2.528,0,0,0,9.22,2.4a2.438,2.438,0,0,0-.858.94c-.236.379-.454.816-.666,1.249s-.416.861-.6,1.209a3.96,3.96,0,0,1-.433.676,4.172,4.172,0,0,1-.7.421c-.358.18-.8.381-1.245.589s-.892.421-1.281.648a2.432,2.432,0,0,0-.966.837,2.335,2.335,0,0,0-.26,1.232c-.01.442.024.924.062,1.4s.084.949.1,1.342a3.747,3.747,0,0,1-.029.8,3.933,3.933,0,0,1-.389.7c-.219.33-.5.713-.774,1.108s-.555.8-.776,1.188A2.349,2.349,0,0,0,0,17.939a2.358,2.358,0,0,0,.409,1.195c.221.386.5.79.776,1.186s.555.786.774,1.115a3.852,3.852,0,0,1,.389.7,3.668,3.668,0,0,1,.029.793c-.019.393-.065.865-.1,1.342s-.072.966-.062,1.408a2.318,2.318,0,0,0,.26,1.228,2.432,2.432,0,0,0,.966.837c.389.229.836.447,1.281.652s.887.4,1.245.585a4.347,4.347,0,0,1,.7.421,3.96,3.96,0,0,1,.433.676c.185.348.387.783.6,1.216s.43.868.666,1.246a2.426,2.426,0,0,0,.858.935,2.531,2.531,0,0,0,1.269.257c.454.007.949-.023,1.44-.061s.978-.082,1.382-.1a4.393,4.393,0,0,1,.82.023,4.21,4.21,0,0,1,.723.379c.339.213.735.486,1.142.758s.822.54,1.221.753a2.481,2.481,0,0,0,1.223.4,2.507,2.507,0,0,0,1.231-.4c.4-.213.81-.482,1.214-.753s.805-.545,1.144-.758a4.2,4.2,0,0,1,.726-.379,4.4,4.4,0,0,1,.822-.023c.4.019.889.063,1.377.1s.988.07,1.444.061a2.508,2.508,0,0,0,1.264-.257,2.389,2.389,0,0,0,.858-.935,13.692,13.692,0,0,0,.668-1.246c.214-.433.418-.868.6-1.216a4.071,4.071,0,0,1,.435-.676,4.119,4.119,0,0,1,.7-.421c.356-.18.8-.377,1.24-.585a14.375,14.375,0,0,0,1.283-.652,2.456,2.456,0,0,0,.969-.837,2.27,2.27,0,0,0,.255-1.228,13.536,13.536,0,0,0-.058-1.408c-.038-.477-.084-.949-.1-1.342a3.668,3.668,0,0,1,.029-.793,3.708,3.708,0,0,1,.385-.7c.219-.33.5-.72.779-1.115a14.11,14.11,0,0,0,.772-1.186,2.336,2.336,0,0,0,.409-1.195,2.327,2.327,0,0,0-.409-1.19A13.769,13.769,0,0,0,35.7,15.56c-.279-.4-.56-.779-.779-1.108a3.783,3.783,0,0,1-.385-.7,3.746,3.746,0,0,1-.029-.8c.019-.393.065-.865.1-1.342a13.448,13.448,0,0,0,.058-1.4,2.287,2.287,0,0,0-.255-1.232,2.456,2.456,0,0,0-.969-.837c-.387-.227-.836-.442-1.283-.648s-.884-.409-1.24-.589a3.962,3.962,0,0,1-.7-.421,4.071,4.071,0,0,1-.435-.676c-.183-.348-.387-.776-.6-1.209a13.739,13.739,0,0,0-.668-1.249,2.4,2.4,0,0,0-.858-.94A2.5,2.5,0,0,0,26.4,2.149c-.457-.007-.952.023-1.444.061s-.976.077-1.377.1a4.191,4.191,0,0,1-.822-.023,4.023,4.023,0,0,1-.726-.379c-.339-.213-.738-.482-1.144-.753S20.066.606,19.67.393A2.5,2.5,0,0,0,18.439,0m0,1.237a2.63,2.63,0,0,1,.615.243c.324.173.716.423,1.113.688s.8.543,1.18.776a3.919,3.919,0,0,0,1.077.536,3.963,3.963,0,0,0,1.214.063c.442-.021.935-.063,1.416-.1s.942-.065,1.312-.058a2.717,2.717,0,0,1,.661.091,2.565,2.565,0,0,1,.409.507c.192.309.4.716.608,1.137s.411.861.615,1.246a3.793,3.793,0,0,0,.666.987A3.932,3.932,0,0,0,30.339,8c.4.2.844.4,1.279.6s.851.407,1.168.594a2.675,2.675,0,0,1,.524.393,2.448,2.448,0,0,1,.091.641c0,.36-.019.816-.058,1.284s-.082.945-.1,1.377a3.511,3.511,0,0,0,.065,1.179,3.8,3.8,0,0,0,.541,1.05c.243.367.536.758.805,1.144s.531.765.709,1.083a2.475,2.475,0,0,1,.25.6,2.523,2.523,0,0,1-.25.6c-.178.318-.437.7-.709,1.083s-.562.776-.805,1.144a3.826,3.826,0,0,0-.541,1.055,3.483,3.483,0,0,0-.065,1.174c.019.433.065.912.1,1.38s.062.921.058,1.284a2.418,2.418,0,0,1-.091.638,2.585,2.585,0,0,1-.524.4c-.317.187-.735.386-1.168.589s-.882.4-1.279.6a3.932,3.932,0,0,0-1.014.645,3.793,3.793,0,0,0-.666.987c-.2.386-.406.823-.615,1.246s-.416.828-.608,1.137a2.692,2.692,0,0,1-.409.512,2.868,2.868,0,0,1-.661.087c-.37.007-.834-.019-1.312-.054s-.973-.087-1.416-.105a4.033,4.033,0,0,0-1.214.068,3.9,3.9,0,0,0-1.077.531c-.38.234-.784.512-1.18.776s-.788.514-1.113.69a2.843,2.843,0,0,1-.615.246,2.927,2.927,0,0,1-.608-.246c-.327-.175-.716-.426-1.113-.69s-.8-.543-1.18-.776a3.88,3.88,0,0,0-1.079-.531,4.016,4.016,0,0,0-1.211-.068c-.445.021-.937.068-1.418.105s-.942.061-1.315.054a2.825,2.825,0,0,1-.656-.087A2.691,2.691,0,0,1,9.45,31.9c-.192-.309-.4-.716-.61-1.137s-.409-.861-.615-1.246a3.734,3.734,0,0,0-.666-.987,3.932,3.932,0,0,0-1.014-.645c-.4-.2-.841-.4-1.276-.6s-.856-.4-1.173-.589a2.609,2.609,0,0,1-.522-.4,2.542,2.542,0,0,1-.091-.638c-.007-.362.022-.818.058-1.284s.082-.947.1-1.38a3.68,3.68,0,0,0-.065-1.174,3.738,3.738,0,0,0-.55-1.055c-.24-.367-.526-.758-.8-1.144s-.529-.765-.707-1.083a2.523,2.523,0,0,1-.25-.6,2.475,2.475,0,0,1,.25-.6c.178-.318.435-.7.707-1.083s.558-.776.8-1.144a3.716,3.716,0,0,0,.55-1.05,3.709,3.709,0,0,0,.065-1.179c-.022-.433-.065-.912-.1-1.377s-.065-.924-.058-1.284a2.574,2.574,0,0,1,.091-.641A2.7,2.7,0,0,1,4.1,9.193c.317-.187.74-.391,1.173-.594s.88-.4,1.276-.6a3.932,3.932,0,0,0,1.014-.645,3.734,3.734,0,0,0,.666-.987c.207-.386.409-.823.615-1.246s.418-.828.61-1.137a2.565,2.565,0,0,1,.409-.507,2.676,2.676,0,0,1,.656-.091c.373-.007.836.023,1.315.058s.973.08,1.418.1a3.948,3.948,0,0,0,1.211-.063,3.9,3.9,0,0,0,1.079-.536c.377-.234.784-.512,1.18-.776s.786-.514,1.113-.688a2.694,2.694,0,0,1,.608-.243m0,5.694A11.171,11.171,0,0,0,7.131,17.941,11.17,11.17,0,0,0,18.439,28.948,11.175,11.175,0,0,0,29.755,17.941,11.175,11.175,0,0,0,18.439,6.931m0,1.239a9.9,9.9,0,0,1,10.039,9.77,9.9,9.9,0,0,1-10.039,9.77A9.9,9.9,0,0,1,8.4,17.941a9.9,9.9,0,0,1,10.039-9.77M22.97,14.3a.642.642,0,0,0-.437.187l-5.67,5.6-2.516-2.469a.647.647,0,0,0-.9-.051.607.607,0,0,0-.055.875l.05.049,2.966,2.914a.65.65,0,0,0,.9,0l0,0,6.124-6.043a.606.606,0,0,0,.007-.875.645.645,0,0,0-.476-.185" transform="translate(0 0)" fill="#404644" stroke="#404644" stroke-width="0.6"/>
  </g>
</svg>
