<svg xmlns="http://www.w3.org/2000/svg" width="38.881" height="36.387" viewBox="0 0 38.881 36.387">
  <g id="noun-warehouse-5057003" transform="translate(0.25 0.25)">
    <g id="Group_5921" data-name="Group 5921" transform="translate(0 0)">
      <path id="Path_4252" data-name="Path 4252" d="M19.984.794a.7.7,0,0,0-.231.039L1.219,7.328a.621.621,0,0,0-.425.58V36.065a.642.642,0,0,0,.66.616H38.51a.642.642,0,0,0,.664-.616V7.908a.622.622,0,0,0-.429-.58L20.217.833a.7.7,0,0,0-.233-.039Zm0,1.276L37.851,8.338v27.1H34.71V11.431a.641.641,0,0,0-.66-.618H5.913a.641.641,0,0,0-.659.618V35.442H2.119V8.338ZM16.308,6.716a.62.62,0,1,0,0,1.238h7.348a.686.686,0,0,0,.471-.181.6.6,0,0,0,.194-.44.642.642,0,0,0-.664-.616ZM6.577,12.052H33.391v23.39H30.113V27.207a.641.641,0,0,0-.659-.616H25.38V18.355a.642.642,0,0,0-.664-.616H15.249a.642.642,0,0,0-.664.616v8.236H10.516a.642.642,0,0,0-.664.616v8.235H6.577Zm9.33,6.92h1.861v2.9a.641.641,0,0,0,.659.621h3.107a.686.686,0,0,0,.47-.181.6.6,0,0,0,.194-.44v-2.9h1.856v7.619H15.908Zm3.181,0h1.787V21.25H19.088Zm-7.914,8.856h1.856v2.9a.642.642,0,0,0,.664.616H16.8a.641.641,0,0,0,.659-.616v-2.9h1.861v7.614H11.175Zm3.179,0h1.789V30.1H14.354Zm6.292,0H22.5v2.9a.641.641,0,0,0,.659.616h3.107a.642.642,0,0,0,.664-.616v-2.9H28.79v7.614H20.646Zm3.181,0h1.782V30.1H23.827Z" transform="translate(-0.794 -0.794)" fill="#404644" stroke="#404644" stroke-width="0.5" fill-rule="evenodd"/>
    </g>
  </g>
</svg>
