<svg id="surface1" xmlns="http://www.w3.org/2000/svg" xmlns:xlink="http://www.w3.org/1999/xlink" width="47.323" height="35.887" viewBox="0 0 47.323 35.887">
  <defs>
    <clipPath id="clip-path">
      <path id="Path_4215" data-name="Path 4215" d="M8.105,4.559H18.532v7.419H8.105Zm0,0" transform="translate(-8.105 -4.559)" fill="#404644"/>
    </clipPath>
    <clipPath id="clip-path-2">
      <path id="Path_4219" data-name="Path 4219" d="M10.742,11.945H30.535v19.2H10.742Zm0,0" transform="translate(-10.742 -11.945)" fill="#404644"/>
    </clipPath>
  </defs>
  <path id="Path_4210" data-name="Path 4210" d="M16.538,24.162a2.536,2.536,0,0,1-1.768-.715,2.392,2.392,0,0,1,0-3.449l2.439-2.373a2.556,2.556,0,0,1,3.545,0,2.392,2.392,0,0,1,0,3.449l-2.439,2.373A2.541,2.541,0,0,1,16.538,24.162Zm2.439-5.734a.932.932,0,0,0-.662.273l-2.439,2.373a.893.893,0,0,0,0,1.3.954.954,0,0,0,1.333,0L19.647,20a.893.893,0,0,0,.272-.653.86.86,0,0,0-.272-.644A.953.953,0,0,0,18.976,18.427Zm0,0" transform="translate(13.151 10.984)" fill="#404644"/>
  <path id="Path_4211" data-name="Path 4211" d="M9.292,18.686a.793.793,0,0,1-.553-.221L4.714,14.549a.757.757,0,0,1,0-1.076l7.543-7.34a.792.792,0,0,1,1.106,0l4.026,3.917a.75.75,0,0,1,.227.538.766.766,0,0,1-.227.538l-7.543,7.34A.793.793,0,0,1,9.292,18.686ZM6.373,14.011l2.919,2.841,6.437-6.263L12.81,7.748Zm0,0" transform="translate(0.54 -2.86)" fill="#404644"/>
  <path id="Path_4212" data-name="Path 4212" d="M7.123,18.394a.75.75,0,0,1-.544-.221L2.553,14.257a.742.742,0,0,1,0-1.076l3.019-2.938a.816.816,0,0,1,1.1,0L10.7,14.16a.752.752,0,0,1,0,1.076L7.676,18.174A.771.771,0,0,1,7.123,18.394Zm-2.91-4.676,2.91,2.841L9.036,14.7l-2.91-2.841Zm0,0" transform="translate(-2.322 2.328)" fill="#404644"/>
  <path id="Path_4213" data-name="Path 4213" d="M6.845,15.03a.786.786,0,0,1-.553-.221l-2-1.958a.742.742,0,0,1,0-1.076l2-1.958a.792.792,0,0,1,1.106,0L9.41,11.775a.742.742,0,0,1,0,1.076L7.4,14.81A.786.786,0,0,1,6.845,15.03Zm-.907-2.717.907.882.907-.882-.907-.882Zm0,0" transform="translate(-0.031 1.775)" fill="#404644"/>
  <g id="Group_5909" data-name="Group 5909" transform="translate(13.423 0)" clip-path="url(#clip-path)">
    <path id="Path_4214" data-name="Path 4214" d="M10.947,11.938c-.807-2.108,1.179-4.093,3.164-5.469a11.477,11.477,0,0,0-4.905,2.32l-1.1-1.076c.127-.132,3.318-3.158,9.6-3.158a.781.781,0,0,1,.762.591A.749.749,0,0,1,18.037,6c-1.7.767-6.392,3.414-5.63,5.408Zm0,0" transform="translate(-8.1 -4.564)" fill="#404644"/>
  </g>
  <path id="Path_4216" data-name="Path 4216" d="M10.453,15.133a.785.785,0,0,1-.363-.088l-2.638-1.35a.748.748,0,0,1-.408-.556.758.758,0,0,1,.218-.653L11.287,8.57a.806.806,0,0,1,.626-.221.823.823,0,0,1,.571.326L14.116,11a.748.748,0,0,1-.091.97l-3.019,2.938A.793.793,0,0,1,10.453,15.133ZM9.12,12.83l1.188.609,2.158-2.1-.743-1.05Zm0,0" transform="translate(3.904 0.208)" fill="#404644"/>
  <path id="Path_4217" data-name="Path 4217" d="M16,20.691a.8.8,0,0,1-.553-.229L8.4,13.616a.782.782,0,0,1-.227-.538A.75.75,0,0,1,8.4,12.54L11.418,9.6a.792.792,0,0,1,1.106,0l7.036,6.854a.724.724,0,0,1,.236.538.753.753,0,0,1-.236.538l-3.01,2.929A.8.8,0,0,1,16,20.691Zm-5.939-7.613L16,18.856l1.913-1.861-5.939-5.778Zm0,0" transform="translate(5.405 1.505)" fill="#404644"/>
  <g id="Group_5910" data-name="Group 5910" transform="translate(19.543 16.682)" clip-path="url(#clip-path-2)">
    <path id="Path_4218" data-name="Path 4218" d="M24.63,31.126a.8.8,0,0,1-.553-.229l-1.505-1.464,1.1-1.076.961.926,3.926-3.82L16.579,13.809l-3.917,3.82.952.935L12.508,19.64,11,18.167a.742.742,0,0,1,0-1.076L16.026,12.2a.792.792,0,0,1,1.106,0L30.206,24.924a.742.742,0,0,1,0,1.076l-5.023,4.9A.8.8,0,0,1,24.63,31.126Zm0,0" transform="translate(-10.703 -11.904)" fill="#404644"/>
  </g>
  <path id="Path_4220" data-name="Path 4220" d="M13.434,21.238a2.581,2.581,0,0,1-1.813-.723,2.455,2.455,0,0,1,0-3.529l2.511-2.444a2.623,2.623,0,0,1,3.627,0,2.444,2.444,0,0,1,0,3.52l-2.521,2.452A2.576,2.576,0,0,1,13.434,21.238Zm2.511-5.9a1,1,0,0,0-.707.282l-2.511,2.444a.956.956,0,0,0,0,1.376,1.01,1.01,0,0,0,1.405,0l2.521-2.452a.945.945,0,0,0,0-1.367A1,1,0,0,0,15.946,15.336Zm0,0" transform="translate(8.974 7.089)" fill="#404644"/>
  <path id="Path_4221" data-name="Path 4221" d="M14.516,22.329A2.606,2.606,0,0,1,12.7,21.6a2.444,2.444,0,0,1,0-3.52l2.521-2.452a2.612,2.612,0,0,1,3.618,0,2.445,2.445,0,0,1,0,3.529L16.33,21.6A2.622,2.622,0,0,1,14.516,22.329Zm2.511-5.911a1,1,0,0,0-.7.282l-2.521,2.452a.945.945,0,0,0,0,1.367,1.021,1.021,0,0,0,1.414,0l2.511-2.444a.961.961,0,0,0,0-1.376A1.025,1.025,0,0,0,17.028,16.418Zm0,0" transform="translate(10.403 8.45)" fill="#404644"/>
  <path id="Path_4222" data-name="Path 4222" d="M15.593,23.406a2.576,2.576,0,0,1-1.8-.723,2.455,2.455,0,0,1,0-3.529L16.3,16.71a2.612,2.612,0,0,1,3.618,0,2.434,2.434,0,0,1,0,3.52l-2.511,2.452A2.581,2.581,0,0,1,15.593,23.406ZM18.114,17.5a.98.98,0,0,0-.707.291L14.9,20.23a.956.956,0,0,0,0,1.376,1.01,1.01,0,0,0,1.405,0l2.511-2.452a.948.948,0,0,0,.3-.688.929.929,0,0,0-.3-.679A.975.975,0,0,0,18.114,17.5Zm0,0" transform="translate(11.838 9.817)" fill="#404644"/>
  <path id="Path_4223" data-name="Path 4223" d="M20.4,28.627l-1.106-1.076,5.4-5.258.444-1.3a.688.688,0,0,1,.145-.247l-8.006-7.79a.752.752,0,0,1,0-1.076L20.3,8.946a.81.81,0,0,1,1.106,0l8.55,8.328a.75.75,0,0,1,.227.538.782.782,0,0,1-.227.538l-3.391,3.3-.444,1.3a.683.683,0,0,1-.19.291Zm-1.46-16.205,7.444,7.251L28.3,17.812,20.854,10.56Zm0,0" transform="translate(17.14 0.687)" fill="#404644"/>
  <path id="Path_4224" data-name="Path 4224" d="M15.667,16.327a4.039,4.039,0,0,1-1.559-.318,1.882,1.882,0,0,1-1.133-1.367,1.826,1.826,0,0,1,.526-1.685l2.167-2.108a4.578,4.578,0,0,1,4.361-1.129l3.454.917L23.075,12.1l-3.463-.917a3,3,0,0,0-2.838.741l-2.167,2.108a.329.329,0,0,0-.1.318.38.38,0,0,0,.218.265,2.417,2.417,0,0,0,2.611-.494.771.771,0,0,1,.707-.2l2.375.485L20.1,15.894l-1.995-.415A3.93,3.93,0,0,1,15.667,16.327Zm0,0" transform="translate(11.7 1.74)" fill="#404644"/>
  <path id="Path_4225" data-name="Path 4225" d="M13.687,14.167l2.657-2.585,1.1,1.076-2.647,2.585Zm0,0" transform="translate(12.692 4.279)" fill="#404644"/>
</svg>
