<svg xmlns="http://www.w3.org/2000/svg" width="37.883" height="36.887" viewBox="0 0 37.883 36.887">
  <g id="noun-sustainable-4264291" transform="translate(0.5 0.5)">
    <path id="Path_4244" data-name="Path 4244" d="M27.941,15.394h0l-4.595-.01a.455.455,0,0,1-.46-.448l-.01-4.488a.455.455,0,0,1,.46-.449h0a.455.455,0,0,1,.461.448l.009,4.041,4.135.009a.449.449,0,1,1,0,.9Z" transform="translate(-16.939 -10)" fill="#404644" stroke="#404644" stroke-width="1"/>
    <path id="Path_4245" data-name="Path 4245" d="M50.73,38.174a.47.47,0,0,1-.258-.077.441.441,0,0,1-.124-.623,16.639,16.639,0,0,0,2.992-9.531A17.307,17.307,0,0,0,35.82,10.9a17.814,17.814,0,0,0-11.369,4.077.471.471,0,0,1-.65-.05.441.441,0,0,1,.051-.633A18.752,18.752,0,0,1,35.82,10,18.218,18.218,0,0,1,54.262,27.943a17.516,17.516,0,0,1-3.149,10.033A.465.465,0,0,1,50.73,38.174Z" transform="translate(-17.379 -10)" fill="#404644" stroke="#404644" stroke-width="1"/>
    <path id="Path_4246" data-name="Path 4246" d="M28.442,55.368A18.218,18.218,0,0,1,10,37.425a17.516,17.516,0,0,1,3.149-10.033.47.47,0,0,1,.64-.121.441.441,0,0,1,.124.623,16.639,16.639,0,0,0-2.992,9.531A17.307,17.307,0,0,0,28.442,54.471,17.78,17.78,0,0,0,40.06,50.183a.468.468,0,0,1,.651.038.44.44,0,0,1-.039.633A18.713,18.713,0,0,1,28.442,55.368Z" transform="translate(-10 -19.481)" fill="#404644" stroke="#404644" stroke-width="1"/>
    <path id="Path_4247" data-name="Path 4247" d="M70.142,83.369a.455.455,0,0,1-.461-.448l-.009-4.05H65.537a.449.449,0,1,1,0-.9h4.6a.455.455,0,0,1,.461.448l.009,4.5a.455.455,0,0,1-.46.449Z" transform="translate(-39.684 -47.482)" fill="#404644" stroke="#404644" stroke-width="1"/>
    <path id="Path_4248" data-name="Path 4248" d="M49.461,56.547A.455.455,0,0,1,49,56.1V39.551a.461.461,0,0,1,.922,0V56.1A.455.455,0,0,1,49.461,56.547Z" transform="translate(-31.019 -26.048)" fill="#404644" stroke="#404644" stroke-width="1"/>
    <path id="Path_4249" data-name="Path 4249" d="M44.713,58.141a5.38,5.38,0,0,1-4.445-2.319A.442.442,0,0,1,40.4,55.2a.47.47,0,0,1,.64.124,4.483,4.483,0,0,0,7.356,0,.47.47,0,0,1,.64-.124.442.442,0,0,1,.127.622A5.38,5.38,0,0,1,44.713,58.141Z" transform="translate(-26.271 -34.882)" fill="#404644" stroke="#404644" stroke-width="1"/>
    <path id="Path_4250" data-name="Path 4250" d="M46.182,46.475a3.859,3.859,0,0,1-3.188-1.662.442.442,0,0,1,.127-.622.47.47,0,0,1,.64.124,2.951,2.951,0,0,0,4.842,0,.47.47,0,0,1,.64-.124.442.442,0,0,1,.127.622A3.859,3.859,0,0,1,46.182,46.475Z" transform="translate(-27.741 -28.811)" fill="#404644" stroke="#404644" stroke-width="1"/>
    <path id="Path_4251" data-name="Path 4251" d="M39.274,44.456A9.064,9.064,0,0,1,30.1,35.529c0-6.369,8.522-13.135,8.885-13.42a.472.472,0,0,1,.579,0c.363.285,8.885,7.051,8.885,13.42A9.064,9.064,0,0,1,39.274,44.456Zm0-21.412c-1.494,1.245-8.253,7.175-8.253,12.485a8.256,8.256,0,0,0,16.506,0C47.527,30.215,40.769,24.289,39.274,23.043Z" transform="translate(-20.833 -16.622)" fill="#404644" stroke="#404644" stroke-width="1"/>
  </g>
</svg>
