<svg xmlns="http://www.w3.org/2000/svg" width="24.541" height="17.29" viewBox="0 0 24.541 17.29">
  <path id="Path_4015" data-name="Path 4015" d="M32.028,36.7a3.083,3.083,0,0,0-2.17-2.184C27.945,34,20.27,34,20.27,34s-7.674,0-9.588.516A3.083,3.083,0,0,0,8.513,36.7a34.716,34.716,0,0,0,0,11.89,3.083,3.083,0,0,0,2.17,2.184c1.914.516,9.588.516,9.588.516s7.674,0,9.588-.516a3.083,3.083,0,0,0,2.17-2.184,34.716,34.716,0,0,0,0-11.89ZM17.761,46.294V39l6.414,3.649Z" transform="translate(-8 -34)" fill="#fff"/>
</svg>
